<svg width="1648" height="297" viewBox="0 0 1648 297" fill="none" xmlns="http://www.w3.org/2000/svg">
<path d="M1632.08 231.715C1618.94 252.43 1616.54 260.85 1595.58 273.281C1574.62 285.711 1538.17 295.494 1499.4 294.611C1428.3 293.022 1378.94 258.201 1308.92 263.569C1255.64 267.666 1225.69 293.869 1171.5 294.787C1115.55 295.741 1080.14 268.937 1024.27 267.701C967.123 266.43 928.261 292.068 871.582 295.423C799.022 299.732 744.065 266.465 670.774 266.924C599.721 267.348 547.087 299.272 476.421 296.871C420.99 294.999 382.946 272.398 327.472 270.703C296.228 269.749 266.533 275.753 239.764 282.039C203.527 290.55 162.126 300.968 118.315 294.54C92.6657 290.797 65.0683 276.741 59.2154 266.924C45.2154 256.5 33.0011 241.037 22.7154 228.5C-3.66591 196.293 -0.895459 171.609 1.38547 137.565C4.48409 90.914 59.6998 41.6849 168.84 19.0833C246.091 3.08566 338.016 2.4147 425.768 2.13217C628.598 1.46118 831.472 0.790192 1034.3 0.119202C1135.39 -0.198639 1237.65 -0.516479 1335.77 8.20633C1433.9 16.9291 1529.05 35.6814 1586.76 66.6526C1673.18 113.021 1645.22 211 1632.08 231.715Z" fill="white"/>
</svg>
