<svg width="56" height="56" viewBox="0 0 56 56" fill="none" xmlns="http://www.w3.org/2000/svg">
<rect width="56" height="56" rx="18.6667" fill="#4C28DE"/>
<mask id="mask0_1824_916" style="mask-type:alpha" maskUnits="userSpaceOnUse" x="0" y="0" width="56" height="56">
<rect width="56" height="56" rx="18.6667" fill="white"/>
</mask>
<g mask="url(#mask0_1824_916)">
<path fill-rule="evenodd" clip-rule="evenodd" d="M47.0659 17.9557C46.6992 17.9557 46.149 17.7369 45.7822 17.2994C35.3291 6.36194 19.7412 6.36194 9.47151 17.2994C8.73796 18.1744 7.63763 17.9557 6.90408 17.0807C6.17053 16.2057 6.35392 14.8932 7.08747 14.0182C18.8243 1.54944 36.6128 1.54944 48.3496 14.0182C49.0832 14.8932 49.2666 16.2057 48.533 17.0807C47.9829 17.7369 47.6161 17.9557 47.0659 17.9557ZM14.7897 25.612C14.2395 25.612 13.6894 25.3932 13.3226 24.737C12.589 23.862 12.7724 22.3307 13.506 21.6745C21.7584 13.5807 33.4952 13.5807 41.7477 21.6745C42.4812 22.5495 42.6646 23.862 41.931 24.737C41.1975 25.612 40.0972 25.8307 39.3636 24.9557C32.5783 18.1745 22.6754 18.1745 15.89 24.9557C15.7066 25.612 15.1565 25.612 14.7897 25.612ZM32.945 33.0495C33.3118 33.2682 33.6786 33.487 34.0454 33.487C34.5955 33.487 35.1457 33.2682 35.3291 32.612C36.0626 31.5182 35.8792 30.2057 34.9623 29.5495C30.561 25.8307 24.5092 25.8307 20.1079 29.5495C19.3744 30.2057 19.191 31.5182 19.7411 32.612C20.2913 33.487 21.3916 33.7057 22.3086 33.0495C25.4262 30.4245 29.8275 30.4245 32.945 33.0495Z" fill="url(#paint0_linear_1824_916)"/>
<path d="M16.2724 66.1065C14.0878 66.0926 11.9793 65.7262 9.94681 65.0073C7.92814 64.2883 6.11688 63.12 4.51301 61.5023C2.90914 59.8846 1.6371 57.7415 0.696904 55.073C-0.229468 52.4044 -0.692655 49.1276 -0.692655 45.2423C-0.678828 41.6751 -0.270948 38.4881 0.530987 35.6813C1.34675 32.8607 2.50817 30.4688 4.01525 28.5054C5.53617 26.5421 7.35434 25.0488 9.46979 24.0256C11.5852 22.9887 13.9565 22.4702 16.5835 22.4702C19.4179 22.4702 21.9205 23.0232 24.0913 24.1293C26.262 25.2216 28.0042 26.708 29.3177 28.5884C30.645 30.4688 31.4469 32.5773 31.7235 34.914H22.8676C22.522 33.4345 21.7961 32.2731 20.69 31.4297C19.5838 30.5863 18.215 30.1646 16.5835 30.1646C13.8182 30.1646 11.7166 31.3675 10.2786 33.7733C8.85452 36.1791 8.12863 39.4491 8.10097 43.5832H8.39133C9.02735 42.325 9.88459 41.2534 10.963 40.3685C12.0553 39.4698 13.2928 38.7854 14.6755 38.3153C16.0719 37.8314 17.5444 37.5894 19.093 37.5894C21.6094 37.5894 23.8493 38.1839 25.8127 39.373C27.776 40.5483 29.3246 42.166 30.4584 44.2261C31.5921 46.2862 32.159 48.6437 32.159 51.2983C32.159 54.1742 31.4884 56.7321 30.1473 58.972C28.8199 61.2119 26.9603 62.9679 24.5683 64.2399C22.1901 65.4981 19.4248 66.1203 16.2724 66.1065ZM16.2309 59.055C17.6136 59.055 18.851 58.7231 19.9433 58.0595C21.0356 57.3958 21.8929 56.4971 22.5151 55.3633C23.1372 54.2295 23.4483 52.9575 23.4483 51.5472C23.4483 50.1369 23.1372 48.8718 22.5151 47.7518C21.9067 46.6319 21.0633 45.7401 19.9848 45.0764C18.9064 44.4128 17.6758 44.0809 16.2932 44.0809C15.2562 44.0809 14.2952 44.2745 13.4103 44.6616C12.5393 45.0488 11.7719 45.588 11.1082 46.2793C10.4584 46.9706 9.94681 47.7726 9.57349 48.6851C9.20018 49.5838 9.01352 50.5448 9.01352 51.5679C9.01352 52.9368 9.32462 54.1881 9.94681 55.3218C10.5828 56.4556 11.4401 57.3612 12.5185 58.0387C13.6108 58.7162 14.8483 59.055 16.2309 59.055Z" fill="url(#paint1_linear_1824_916)"/>
<path d="M41.8736 66.1065C38.6797 66.1065 35.8384 65.588 33.3496 64.551C30.8747 63.5002 28.9321 62.0691 27.5218 60.2579C26.1115 58.4466 25.4063 56.3934 25.4063 54.0982C25.4063 52.3284 25.8073 50.7038 26.6092 49.2244C27.425 47.7311 28.5311 46.4936 29.9276 45.512C31.324 44.5165 32.8864 43.8804 34.6147 43.6039V43.3136C32.3472 42.8573 30.5083 41.7581 29.098 40.0159C27.6877 38.26 26.9825 36.2206 26.9825 33.8977C26.9825 31.6993 27.6255 29.7429 28.9113 28.0284C30.1972 26.3001 31.96 24.9451 34.1999 23.9634C36.4536 22.9679 39.0115 22.4702 41.8736 22.4702C44.7357 22.4702 47.2867 22.9679 49.5266 23.9634C51.7803 24.9589 53.5501 26.3208 54.8359 28.0491C56.1218 29.7636 56.7716 31.7132 56.7855 33.8977C56.7716 36.2344 56.0527 38.2738 54.6285 40.0159C53.2044 41.7581 51.3793 42.8573 49.1533 43.3136V43.6039C50.8539 43.8804 52.3956 44.5165 53.7782 45.512C55.1747 46.4936 56.2808 47.7311 57.0966 49.2244C57.9261 50.7038 58.3478 52.3284 58.3617 54.0982C58.3478 56.3934 57.6358 58.4466 56.2255 60.2579C54.8152 62.0691 52.8657 63.5002 50.3769 64.551C47.902 65.588 45.0675 66.1065 41.8736 66.1065ZM41.8736 59.5112C43.2977 59.5112 44.5421 59.2555 45.6068 58.7439C46.6714 58.2185 47.501 57.4995 48.0955 56.587C48.7039 55.6606 49.0081 54.5959 49.0081 53.393C49.0081 52.1625 48.697 51.0771 48.0748 50.1369C47.4526 49.1829 46.6092 48.4363 45.5445 47.897C44.4799 47.344 43.2563 47.0674 41.8736 47.0674C40.5048 47.0674 39.2812 47.344 38.2027 47.897C37.1242 48.4363 36.2739 49.1829 35.6517 50.1369C35.0433 51.0771 34.7392 52.1625 34.7392 53.393C34.7392 54.5959 35.0364 55.6606 35.631 56.587C36.2255 57.4995 37.062 58.2185 38.1405 58.7439C39.2189 59.2555 40.4633 59.5112 41.8736 59.5112ZM41.8736 40.5344C43.0627 40.5344 44.1204 40.2925 45.0468 39.8085C45.9732 39.3246 46.6991 38.654 47.2245 37.7968C47.7499 36.9396 48.0126 35.951 48.0126 34.831C48.0126 33.7249 47.7499 32.757 47.2245 31.9275C46.6991 31.084 45.9801 30.4273 45.0675 29.9572C44.155 29.4733 43.0903 29.2313 41.8736 29.2313C40.6707 29.2313 39.6061 29.4733 38.6797 29.9572C37.7533 30.4273 37.0274 31.084 36.502 31.9275C35.9905 32.757 35.7347 33.7249 35.7347 34.831C35.7347 35.951 35.9974 36.9396 36.5228 37.7968C37.0482 38.654 37.7741 39.3246 38.7004 39.8085C39.6268 40.2925 40.6845 40.5344 41.8736 40.5344Z" fill="url(#paint2_linear_1824_916)"/>
</g>
<defs>
<linearGradient id="paint0_linear_1824_916" x1="27.6015" y1="14" x2="27.6015" y2="33.4869" gradientUnits="userSpaceOnUse">
<stop stop-color="white"/>
<stop offset="1" stop-color="#4C28DE"/>
</linearGradient>
<linearGradient id="paint1_linear_1824_916" x1="27.4567" y1="60.3089" x2="5.6348" y2="28.3632" gradientUnits="userSpaceOnUse">
<stop stop-color="#F22449"/>
<stop offset="1" stop-color="#FFC793"/>
</linearGradient>
<linearGradient id="paint2_linear_1824_916" x1="53.5427" y1="60.3089" x2="31.7208" y2="28.3632" gradientUnits="userSpaceOnUse">
<stop stop-color="#F22449"/>
<stop offset="1" stop-color="#FFC793"/>
</linearGradient>
</defs>
</svg>
