<svg width="26" height="26" viewBox="0 0 26 26" fill="none" xmlns="http://www.w3.org/2000/svg">
<path fill-rule="evenodd" clip-rule="evenodd" d="M13.0012 0.200195C9.52485 0.200195 9.08858 0.215395 7.72323 0.277529C6.36055 0.33993 5.43041 0.555666 4.61653 0.872202C3.77466 1.19914 3.06051 1.63648 2.34904 2.34822C1.63703 3.05969 1.19969 3.77383 0.871692 4.61544C0.554355 5.42958 0.338353 6.35999 0.277019 7.72214C0.215951 9.08749 0.199951 9.52402 0.199951 13.0003C0.199951 16.4766 0.215418 16.9116 0.277285 18.2769C0.339953 19.6396 0.555688 20.5697 0.871958 21.3836C1.19916 22.2255 1.6365 22.9396 2.34824 23.6511C3.05945 24.3631 3.77359 24.8015 4.61493 25.1285C5.42934 25.445 6.35975 25.6607 7.72216 25.7231C9.08751 25.7853 9.52352 25.8005 12.9996 25.8005C16.4761 25.8005 16.9111 25.7853 18.2764 25.7231C19.6391 25.6607 20.5703 25.445 21.3847 25.1285C22.2263 24.8015 22.9394 24.3631 23.6506 23.6511C24.3626 22.9396 24.7999 22.2255 25.1279 21.3839C25.4426 20.5697 25.6586 19.6393 25.7226 18.2772C25.784 16.9118 25.8 16.4766 25.8 13.0003C25.8 9.52402 25.784 9.08775 25.7226 7.72241C25.6586 6.35973 25.4426 5.42958 25.1279 4.61571C24.7999 3.77383 24.3626 3.05969 23.6506 2.34822C22.9386 1.63621 22.2266 1.19887 21.3839 0.872202C20.5679 0.555666 19.6372 0.33993 18.2745 0.277529C16.9092 0.215395 16.4745 0.200195 12.9972 0.200195H13.0012ZM11.8528 2.50685C12.1936 2.50632 12.5739 2.50685 13.0011 2.50685C16.4187 2.50685 16.8238 2.51912 18.1734 2.58045C19.4214 2.63752 20.0988 2.84605 20.55 3.02126C21.1473 3.25326 21.5732 3.53059 22.0209 3.9786C22.4689 4.4266 22.7463 4.85327 22.9788 5.45061C23.154 5.90129 23.3628 6.57863 23.4196 7.82664C23.4809 9.17599 23.4943 9.58133 23.4943 12.9974C23.4943 16.4134 23.4809 16.8187 23.4196 18.1681C23.3625 19.4161 23.154 20.0934 22.9788 20.5441C22.7468 21.1414 22.4689 21.5668 22.0209 22.0145C21.5729 22.4625 21.1476 22.7399 20.55 22.9719C20.0993 23.1479 19.4214 23.3559 18.1734 23.4129C16.8241 23.4743 16.4187 23.4876 13.0011 23.4876C9.58319 23.4876 9.17812 23.4743 7.82878 23.4129C6.58076 23.3553 5.90342 23.1468 5.45195 22.9716C4.85461 22.7396 4.42794 22.4623 3.97994 22.0143C3.53193 21.5662 3.25459 21.1406 3.02206 20.543C2.84686 20.0924 2.63806 19.415 2.58125 18.167C2.51992 16.8177 2.50765 16.4123 2.50765 12.9942C2.50765 9.57599 2.51992 9.17279 2.58125 7.82344C2.63832 6.57543 2.84686 5.89809 3.02206 5.44688C3.25406 4.84954 3.53193 4.42287 3.97994 3.97487C4.42794 3.52686 4.85461 3.24952 5.45195 3.01699C5.90316 2.84099 6.58076 2.63298 7.82878 2.57565C9.00959 2.52232 9.46719 2.50632 11.8528 2.50365V2.50685ZM19.8337 4.63221C18.9857 4.63221 18.2977 5.31942 18.2977 6.16769C18.2977 7.0157 18.9857 7.70371 19.8337 7.70371C20.6817 7.70371 21.3697 7.0157 21.3697 6.16769C21.3697 5.31968 20.6817 4.63221 19.8337 4.63221ZM13.0012 6.42689C9.371 6.42689 6.42777 9.37012 6.42777 13.0003C6.42777 16.6305 9.371 19.5724 13.0012 19.5724C16.6313 19.5724 19.5735 16.6305 19.5735 13.0003C19.5735 9.37012 16.6313 6.42689 13.0012 6.42689ZM13.0011 8.73358C15.3574 8.73358 17.2678 10.6437 17.2678 13.0003C17.2678 15.3566 15.3574 17.267 13.0011 17.267C10.6446 17.267 8.73441 15.3566 8.73441 13.0003C8.73441 10.6437 10.6446 8.73358 13.0011 8.73358Z" fill="white"/>
</svg>
