<svg width="105" height="26" viewBox="0 0 105 26" fill="none" xmlns="http://www.w3.org/2000/svg">
<g clip-path="url(#clip0_1340_670)">
<path fill-rule="evenodd" clip-rule="evenodd" d="M27.8466 0.0863037H30.1435C33.2979 0.0863037 35.1413 0.549621 36.7777 1.42696C38.4141 2.3043 39.7055 3.58582 40.5729 5.22223C41.4503 6.85862 41.9136 8.70202 41.9136 11.8565V14.1435C41.9136 17.298 41.4503 19.1414 40.5729 20.7778C39.6956 22.4142 38.4141 23.7056 36.7777 24.573C35.1413 25.4504 33.2979 25.9137 30.1435 25.9137H27.8564C24.702 25.9137 22.8586 25.4504 21.2222 24.573C19.5858 23.6957 18.2944 22.4142 17.427 20.7778C16.5496 19.1414 16.0863 17.298 16.0863 14.1435V11.8565C16.0863 8.70202 16.5496 6.85862 17.427 5.22223C18.3043 3.58582 19.5858 2.29445 21.2222 1.42696C22.8487 0.549621 24.702 0.0863037 27.8466 0.0863037Z" fill="#0068FF"/>
<path opacity="0.12" fill-rule="evenodd" clip-rule="evenodd" d="M41.9135 13.7663V14.1437C41.9135 17.2982 41.4502 19.1416 40.5729 20.778C39.6955 22.4144 38.414 23.7057 36.7776 24.5732C35.1412 25.4506 33.2978 25.9139 30.1433 25.9139H27.8564C25.2752 25.9139 23.5718 25.6037 22.1414 25.0103L19.7832 22.5819L41.9135 13.7663Z" fill="#001A33"/>
<path fill-rule="evenodd" clip-rule="evenodd" d="M20.0451 22.6664C21.253 22.7999 22.7631 22.4555 23.8354 21.9349C28.4917 24.5085 35.7702 24.3856 40.176 21.5661C40.3468 21.3098 40.5065 21.0432 40.6546 20.7669C41.5352 19.1245 42.0002 17.2744 42.0002 14.1084V11.8131C42.0002 8.64708 41.5352 6.79697 40.6546 5.15462C39.784 3.51227 38.4879 2.22608 36.8456 1.34554C35.2032 0.465004 33.3531 0 30.1871 0H27.8819C25.1855 0 23.435 0.339432 21.9643 0.987444C21.8839 1.05943 21.805 1.13265 21.7278 1.2071C17.413 5.36656 17.085 14.3828 20.7438 19.2807C20.7479 19.2879 20.7524 19.2952 20.7574 19.3026C21.3213 20.1336 20.7772 21.588 19.9263 22.4388C19.7878 22.5675 19.8373 22.6466 20.0451 22.6664Z" fill="white"/>
<path d="M26.6928 8.84003H21.6358V9.92438H25.1451L21.6851 14.2125C21.5766 14.3702 21.4978 14.5181 21.4978 14.8533V15.1293H26.2689C26.5055 15.1293 26.7027 14.9321 26.7027 14.6955V14.1139H23.0159L26.2689 10.0328C26.3182 9.97368 26.4069 9.86526 26.4464 9.81596L26.4661 9.78638C26.6534 9.51036 26.6928 9.27376 26.6928 8.98792V8.84003Z" fill="#0068FF"/>
<path d="M33.1296 15.1293H33.8492V8.84003H32.7649V14.7645C32.7649 14.9617 32.9226 15.1293 33.1296 15.1293Z" fill="#0068FF"/>
<path d="M29.4233 10.2401C28.0629 10.2401 26.9589 11.3441 26.9589 12.7045C26.9589 14.0649 28.0629 15.1689 29.4233 15.1689C30.7837 15.1689 31.8877 14.0649 31.8877 12.7045C31.8976 11.3441 30.7936 10.2401 29.4233 10.2401ZM29.4233 14.1536C28.6248 14.1536 27.9742 13.5029 27.9742 12.7045C27.9742 11.906 28.6248 11.2554 29.4233 11.2554C30.2218 11.2554 30.8724 11.906 30.8724 12.7045C30.8724 13.5029 30.2316 14.1536 29.4233 14.1536Z" fill="#0068FF"/>
<path d="M37.0531 10.2004C35.6829 10.2004 34.569 11.3144 34.569 12.6846C34.569 14.0548 35.6829 15.1688 37.0531 15.1688C38.4233 15.1688 39.5373 14.0548 39.5373 12.6846C39.5373 11.3144 38.4233 10.2004 37.0531 10.2004ZM37.0531 14.1534C36.2448 14.1534 35.5941 13.5028 35.5941 12.6945C35.5941 11.8861 36.2448 11.2355 37.0531 11.2355C37.8615 11.2355 38.5121 11.8861 38.5121 12.6945C38.5121 13.5028 37.8615 14.1534 37.0531 14.1534Z" fill="#0068FF"/>
<path d="M31.3173 15.1291H31.8989V10.3776H30.8835V14.7052C30.8835 14.9319 31.0807 15.1291 31.3173 15.1291Z" fill="#0068FF"/>
</g>
<g clip-path="url(#clip1_1340_670)">
<path fill-rule="evenodd" clip-rule="evenodd" d="M70.2833 10.3402V9.64814H72.4604V19.381H71.2148C70.7021 19.381 70.2861 18.9865 70.2833 18.4991C70.283 18.4994 70.2826 18.4994 70.2823 18.4997C69.4055 19.1103 68.3216 19.4731 67.1509 19.4731C64.2188 19.4731 61.8414 17.2104 61.8414 14.4196C61.8414 11.6289 64.2188 9.36653 67.1509 9.36653C68.3216 9.36653 69.4055 9.72899 70.2823 10.3396C70.2826 10.3399 70.283 10.3399 70.2833 10.3402ZM61.2774 6.51837V6.83375C61.2774 7.42245 61.1947 7.90277 60.7933 8.46659L60.7447 8.51931C60.6571 8.61407 60.4512 8.83646 60.3533 8.95698L53.3647 17.311H61.2774V18.4938C61.2774 18.9839 60.8598 19.381 60.3452 19.381H50.0928V18.8234C50.0928 18.1402 50.2709 17.8358 50.4961 17.5183L57.9463 8.73607H50.4034V6.51837H61.2774ZM75.1009 19.381C74.6727 19.381 74.3245 19.0496 74.3245 18.6424V6.51837H76.6546V19.381H75.1009ZM83.5446 9.30552C86.4969 9.30552 88.8899 11.5851 88.8899 14.3927C88.8899 17.203 86.4969 19.4825 83.5446 19.4825C80.592 19.4825 78.1993 17.203 78.1993 14.3927C78.1993 11.5851 80.592 9.30552 83.5446 9.30552ZM67.1509 17.3928C68.8763 17.3928 70.2746 16.062 70.2746 14.4196C70.2746 12.78 68.8763 11.4489 67.1509 11.4489C65.4255 11.4489 64.027 12.78 64.027 14.4196C64.027 16.062 65.4255 17.3928 67.1509 17.3928ZM83.5446 17.3877C85.2802 17.3877 86.6888 16.0472 86.6888 14.3927C86.6888 12.7409 85.2802 11.4003 83.5446 11.4003C81.8062 11.4003 80.4001 12.7409 80.4001 14.3927C80.4001 16.0472 81.8062 17.3877 83.5446 17.3877Z" fill="#0068FF"/>
</g>
<defs>
<clipPath id="clip0_1340_670">
<rect width="26" height="26" fill="white" transform="translate(16)"/>
</clipPath>
<clipPath id="clip1_1340_670">
<rect width="39" height="13" fill="white" transform="translate(50 6.5)"/>
</clipPath>
</defs>
</svg>
