<svg width="12" height="12" viewBox="0 0 12 12" fill="none" xmlns="http://www.w3.org/2000/svg">
<path d="M7.40994 5.99994L11.7099 1.70994C11.8982 1.52164 12.004 1.26624 12.004 0.999941C12.004 0.73364 11.8982 0.478245 11.7099 0.289941C11.5216 0.101638 11.2662 -0.00415039 10.9999 -0.00415039C10.7336 -0.00415039 10.4782 0.101638 10.2899 0.289941L5.99994 4.58994L1.70994 0.289941C1.52164 0.101638 1.26624 -0.00415039 0.999939 -0.00415039C0.733637 -0.00415039 0.478243 0.101638 0.289939 0.289941C0.101635 0.478245 -0.00415277 0.73364 -0.00415277 0.999941C-0.00415278 1.26624 0.101635 1.52164 0.289939 1.70994L4.58994 5.99994L0.289939 10.2899C0.196211 10.3829 0.121816 10.4935 0.0710478 10.6154C0.0202791 10.7372 -0.00585938 10.8679 -0.00585938 10.9999C-0.00585938 11.132 0.0202791 11.2627 0.0710478 11.3845C0.121816 11.5064 0.196211 11.617 0.289939 11.7099C0.382902 11.8037 0.493503 11.8781 0.615362 11.9288C0.737221 11.9796 0.867927 12.0057 0.999939 12.0057C1.13195 12.0057 1.26266 11.9796 1.38452 11.9288C1.50638 11.8781 1.61698 11.8037 1.70994 11.7099L5.99994 7.40994L10.2899 11.7099C10.3829 11.8037 10.4935 11.8781 10.6154 11.9288C10.7372 11.9796 10.8679 12.0057 10.9999 12.0057C11.132 12.0057 11.2627 11.9796 11.3845 11.9288C11.5064 11.8781 11.617 11.8037 11.7099 11.7099C11.8037 11.617 11.8781 11.5064 11.9288 11.3845C11.9796 11.2627 12.0057 11.132 12.0057 10.9999C12.0057 10.8679 11.9796 10.7372 11.9288 10.6154C11.8781 10.4935 11.8037 10.3829 11.7099 10.2899L7.40994 5.99994Z" fill="white"/>
</svg>
